# xmcd
#
# Track frame offsets:
#	150
#	13588
#	39523
#	55677
#	78899
#	109985
#	129648
#	152230
#	171607
#	201371
#
# Disc length: 2928 seconds
#
# Revision: 1
# Processed by: cddbd v1.5.2PL0 Copyright (c) Steve Scherf et al.
# Submitted via: audiograbber 1.83.01
#
DISCID=850b6e0a
DTITLE=John Earl Walker - Come Over Here!
DYEAR=2008
DGENRE=Blues
TTITLE0=Tess's Shuffle
TTITLE1=The Showdown
TTITLE2=Come Over Here
TTITLE3=My Last Goodbye
TTITLE4=Airport Blues
TTITLE5=Backdoor Romance
TTITLE6=Please Pretty Baby
TTITLE7=The World's A Prison
TTITLE8=Poor Boy Blues
TTITLE9=Nightwalker
EXTD=
EXTT0=
EXTT1=
EXTT2=
EXTT3=
EXTT4=
EXTT5=
EXTT6=
EXTT7=
EXTT8=
EXTT9=
PLAYORDER=
